<svg id="Calque_2" data-name="Calque 2" xmlns="http://www.w3.org/2000/svg" viewBox="0 0 3500 800"><defs><style>.cls-1,.cls-2{fill:#202a38;}.cls-2{stroke:#fff;stroke-miterlimit:10;stroke-width:20px;}</style></defs><path class="cls-1" d="M211.41,33.62a634.12,634.12,0,0,1,68.28-9q37-3,82-3,8.38,0,24.8,1.75a259.57,259.57,0,0,0,26.31,1.75q14.51,1.48,22.13,3,8.39,1.48,22.89,3.48l21.37-4a50,50,0,0,1,14.88,3.75q8,3.26,19.45,7.23,6.09-2.49,17.56-6,11.43,0,18.69,5.74t9.53,16.21V70.26a92.26,92.26,0,0,1-1.52,16.21c-.51,2.67-.25,6.82.76,12.48a79.11,79.11,0,0,1,1.52,13c0,3.66-1.27,6.33-3.81,8a17.81,17.81,0,0,1-9.9,2.49,498,498,0,0,1-57.17-3.24,510.24,510.24,0,0,1-56.38-9.73q-24.4,3-42.73,4.49-14.53,1-21.41,3c-4.59,1.33-6.87,3-6.87,5a53.46,53.46,0,0,0,8.4,7.49,69.53,69.53,0,0,0,13,7.49c3.55,1.66,7.64,5.24,12.23,10.73s9.43,12.9,14.53,22.21a41.1,41.1,0,0,1,4.2,10.49,42.69,42.69,0,0,1,1.15,9.48q0,10.49-3.05,26.2a158.26,158.26,0,0,1-6.86,25.7q-6.86,19.46-10.68,32.18t-6.09,19.21a66.13,66.13,0,0,0-2.29,12q-.77,7-1.52,16-.76,7.5-6.09,18.73t-10.66,25.69a58.21,58.21,0,0,1-2.29,15q-2.28,8.49-6.11,19.47a82.4,82.4,0,0,1-7.25,14.72,147,147,0,0,0-9.51,19.21,147.94,147.94,0,0,1,2.29,15.47q-3,14-6.09,28.94-4.58,21.47-9.16,43.42t-8.38,42.41q-4.57,6-9.9,13.48a46.94,46.94,0,0,0,1.89,10.73A48.47,48.47,0,0,1,315.48,600q0,5.49-3.05,16.23T309.38,632q0,9.49-.76,29.44t-.76,30q3.81,8.49,6.87,16.47a51.34,51.34,0,0,1-5,11.23,19.5,19.5,0,0,1-7.27,6.74q-13.77,5.49-25.21,9-7.65,5-12.62,8c-3.32,2-6.25,3-8.79,3-11.21,0-19.1-1-23.69-3s-6.87-4.66-6.87-8a217.4,217.4,0,0,1,5.35-31.92,35.34,35.34,0,0,1-3.44-6,106.59,106.59,0,0,0-5.72-10q-3.84-38.88-9.94-79.79,2.28-29.43,2.29-59.35,0-14,1.89-35.16T223,463.49q5.33-27.93,7.62-48.88a330.6,330.6,0,0,0,2.29-34.42A78.06,78.06,0,0,1,234.78,365c1.25-6.15,2.66-13.71,4.18-22.69q2.28-11.46,4.57-20.69a70.32,70.32,0,0,0,2.29-16.71,50.62,50.62,0,0,0-.76-8.48c-.51-3-1-5.65-1.52-8Q251.13,276,255,268.23T258.76,258q-3-6.47-6.86-13,4.57-7,9.88-25.19t11.43-47.62V157.76c0-5.66.25-12.46.78-20.45l-4.59-9a105.48,105.48,0,0,0-11.07-2.49c-5.35-1-12.09-1.84-20.21-2.5l-9.92,4.49q-9.9,1.48-20.21,3t-21.74,3.48Q106.89,148.8,29.09,162.76a14.79,14.79,0,0,1-9.92-3.24,10.92,10.92,0,0,1-3.81-8.74c0-2,1.29-5.47,3.81-10.47a177.79,177.79,0,0,1,12.21-19.47,281.34,281.34,0,0,1,3.83-29.06q2.3-11.52,5.33-17.55,6.12-11,18.69-18.53T89.37,44.18a516.77,516.77,0,0,1,65.62-10A354.7,354.7,0,0,1,211.41,33.62Z"/><path class="cls-1" d="M549.41,410.06c0-4.32,1.89-9.48,5.72-15.47s9.53-12.82,17.19-20.47q16-15,24.08-23.46t8.79-11q3.81-5.49,10.31-14.48t14.9-20.47Q638.05,299.24,648,281t22.93-48.18a229.94,229.94,0,0,0,13-19.21q6.89-11.24,16.82-26.72,3-11.47,11.46-26.95a398.07,398.07,0,0,1,21.41-34.44q16-18,33.61-35.45t50.45-26q13,5.49,19.86,11t6.89,10.49q0,12.48-17.21,33.19T810,147q0,4,6.87,7.5,6.09-2,22.15-12t42.05-27q21.39-13,38.57-21.21t32.5-10.24a227.69,227.69,0,0,1,25.21-4.49q15.28-2,34.39-6.49a99,99,0,0,0,16-7q5.32-3,16.8-6l11.46,1.49q6.89,4.5,38.22,9.24T1134,75.6a97.22,97.22,0,0,1,16,8,227,227,0,0,0,23.69,12,192,192,0,0,1,57,35.21q26.37,23.21,47.75,57.66,19.86,31.45,30.19,59.91t10.31,54.9q0,83.39-32.11,144.78t-97,100.85l-14.9,9.73q-8.79,5.75-21.78,13.74v5.49q-1.53,5-8.79,10.74a173,173,0,0,1-20.25,13.23q-28.3,17-57.32,34.2t-59.61,33.69q-38.21,21.46-72.59,34a354.05,354.05,0,0,1-66.48,17.46q-13.77,8-34,12.25t-49.29,4.23q-42.79,0-69.55-3.74T677,723.12a155.25,155.25,0,0,0-16-9q-9.16-4.5-21.39-11.49-13-6.46-24.45-23.7t-20.64-44.68a357.3,357.3,0,0,1-9.55-39.7,202.76,202.76,0,0,1-3.44-35.69q0-5,3.81-16.48t3.07-17.48a115,115,0,0,0-1.52-20q0-9,8.4-28.45t8.42-31c0-1.66-1.54-4.16-4.59-7.49q-12.24,9-17.58,16.47a29.73,29.73,0,0,1-10.7,7.49,30.39,30.39,0,0,1-11.46,2.5c-5.61,0-10.06-1.49-13.38-4.49s-5-7.49-5-13.48q0-6,4.2-18C548,420.54,549.41,414.4,549.41,410.06ZM1007.92,165.9a242.51,242.51,0,0,0-37.46,3,352.59,352.59,0,0,0-39,8.48l-74.14,21.47a94.25,94.25,0,0,0-17.21,8,152.62,152.62,0,0,0-21,15L784,250.29q-16.82,13-29.8,47.44T731.25,387.6q-7.65,42.43-10.7,79.14t-3,67.66q0,63.4,29.8,94.62t90.19,31.2q28.28,0,63.43-9.73t76.42-29.71a581.33,581.33,0,0,0,61.89-34.2q26.74-17.22,44.33-35.21,7.62-7,24.06-29.45t45.49-61.42a270.92,270.92,0,0,0,29.8-57.67,173.68,173.68,0,0,0,10.7-60.17q-4.6-15-9.94-29.45l5.35-21.47q-7.65-6-13-11c-1.52-2.65-2.81-4.82-3.83-6.49q-23.7-53.92-64.2-81.13T1007.92,165.9Z"/><path class="cls-1" d="M2079.07,590.61q16.63,24.36,28.75,45.72-15.29,10-40.47,18.25a491.19,491.19,0,0,1-58.79,14.75q-9.16,1.51-21.78,4t-28.63,5q-22.14,1-53.06,3t-72.91,5.5q-59.58,30.49-105.76,48t-77.5,22.5l-11.44,6.49q-26,7.49-63,12.23t-87.42,8.23a53,53,0,0,1-18.71-7.23,165.21,165.21,0,0,1-21.76-16.23q7.62-5.51,19.08-14.27t25.21-20.78A89.65,89.65,0,0,1,1518,708q15.65-6.74,40.1-9.73,25.2-3.48,55.74-10a181.91,181.91,0,0,1,18.71-8.23q11.07-4.25,24.82-10.23A223.21,223.21,0,0,0,1694,654.37q19.1-10,42-24.45,30.52-19.45,48.85-31.19T1807,584a114.58,114.58,0,0,1,13-12.73,86.89,86.89,0,0,1,16.8-10.73q10.7-12,26.74-30.19t38.16-42.17a113,113,0,0,0,9.55-7.23q5.71-4.74,13.36-10.23,15.27-11.48,22.15-34.94t6.87-56.89q0-23-17.95-47.91t-55.39-52.91a508.48,508.48,0,0,0-66.44-41.16,458.27,458.27,0,0,0-71-29.7q-27.51-9-51.56-17.72t-43.92-15.73q-10.72,25-27.13,68.88t-37,106.79q-22.91,70.88-34.37,114.29t-11.46,58.4a232.87,232.87,0,0,0-7.64,25l-30.56,98.31q-26.74,33.95-45.84,50.41t-29.78,16.47c-3.55,0-6.84-1.9-9.86-5.73s-6.07-9.9-9.1-18.22l9.1-28.43a37.9,37.9,0,0,1-4.55-8.48q4.55-32.42,8.34-65.6t8.36-66.1a548.36,548.36,0,0,1,11.46-69.34q7.62-32.42,16.82-59.86l-9.18-25.44a117.93,117.93,0,0,0,9.55-23.46,265.49,265.49,0,0,0,7.27-31.93q3-22.92,5.35-37.16t5.35-19.71a169.61,169.61,0,0,0,6.48-16.46q3.43-10,8-24,2.28-5.48,26.76-21.2T1545,167.49q16-1.49,23.67-4.25t7.66-7.23q0-3.48-8.79-6t-26.37-4a174.65,174.65,0,0,1-19.49-1.25,162.15,162.15,0,0,1-22.54-4.23l-62.65-20q-19.83-6-30.08-12c-6.84-4-10.23-8.15-10.23-12.48a162.11,162.11,0,0,0,7.6-20q-5.33-10-8.73-16.46c-2.29-4.32-3.42-7.65-3.42-10a8.1,8.1,0,0,1,3.44-7q3.43-2.49,9.55-2.5Q1426,42.76,1442,44.76q7.62-1.48,15.27-3.24t15.27-3.75a278.13,278.13,0,0,1,32.83,1.75,178.83,178.83,0,0,1,22.15,3.75q10.7,3.48,22.15,7.48t22.15,7q9.17-1,24.45-2.5a33.06,33.06,0,0,1,8.4,1,139.24,139.24,0,0,0,22.15,7.23q13,3.26,29.78,5.74,18.31,2,31.31,4.23a155.72,155.72,0,0,1,20.62,4.75q80.94,27.43,141.65,51.65T1950.64,177q62.64,35.43,92.42,75.86t29.78,84.32q0,69.87-63.41,148.21T1820.75,650.06q10.7-3,28.28-6.49t40.51-8.5q48.17-7,99.37-15,32.11-6,54.27-13T2079.07,590.61Z"/><path class="cls-1" d="M2136.25,410.06c0-4.32,1.89-9.48,5.72-15.47s9.53-12.82,17.19-20.47q16.05-15,24.08-23.46t8.79-11q3.81-5.49,10.31-14.48t14.9-20.47q7.65-5.49,17.58-23.71t22.93-48.18a229.94,229.94,0,0,0,13-19.21q6.89-11.24,16.82-26.72,3-11.47,11.46-26.95a398.07,398.07,0,0,1,21.41-34.44q16-18,33.61-35.45t50.45-26q13,5.49,19.86,11t6.89,10.49q0,12.48-17.21,33.19T2396.84,147c0,2.68,2.28,5.18,6.87,7.5q6.09-2,22.15-12t42-27q21.39-13,38.57-21.21T2539,84.07a227.69,227.69,0,0,1,25.21-4.49q15.29-2,34.39-6.49a99,99,0,0,0,16.05-7q5.32-3,16.8-6l11.46,1.49q6.89,4.5,38.22,9.24t39.74,4.75a97.22,97.22,0,0,1,16,8,227,227,0,0,0,23.69,12,192,192,0,0,1,56.95,35.21q26.37,23.21,47.75,57.66,19.86,31.45,30.19,59.91t10.31,54.9q0,83.39-32.11,144.78t-97,100.85l-14.9,9.73q-8.79,5.73-21.78,13.74v5.49q-1.53,5-8.79,10.74a173,173,0,0,1-20.25,13.23q-28.3,17-57.32,34.2T2594,669.7q-38.21,21.46-72.59,34a354.05,354.05,0,0,1-66.48,17.46q-13.77,8-34,12.25t-49.29,4.23q-42.79,0-69.55-3.74t-38.2-10.74a155.25,155.25,0,0,0-16-9q-9.17-4.5-21.39-11.49-13-6.46-24.45-23.7t-20.64-44.68a357.3,357.3,0,0,1-9.55-39.7,202.76,202.76,0,0,1-3.44-35.69q0-5,3.81-16.48t3.07-17.48a115,115,0,0,0-1.52-20q0-9,8.4-28.45t8.42-31c0-1.66-1.54-4.16-4.59-7.49q-12.24,9-17.58,16.47a29.73,29.73,0,0,1-10.7,7.49,30.39,30.39,0,0,1-11.46,2.5c-5.61,0-10.06-1.49-13.38-4.49s-5-7.49-5-13.48q0-6,4.2-18C2134.84,420.54,2136.25,414.4,2136.25,410.06ZM2594.76,165.9a242.51,242.51,0,0,0-37.46,3,352.59,352.59,0,0,0-39,8.48l-74.14,21.47a94.25,94.25,0,0,0-17.21,8,152.62,152.62,0,0,0-21,15l-35.17,28.46q-16.82,13-29.8,47.44t-22.93,89.87q-7.65,42.43-10.7,79.14t-3,67.66q0,63.4,29.8,94.62t90.19,31.2q28.27,0,63.43-9.73t76.42-29.71a581.33,581.33,0,0,0,61.89-34.2q26.74-17.22,44.33-35.21,7.62-7,24.06-29.45T2740,460.5a270.92,270.92,0,0,0,29.8-57.67,173.68,173.68,0,0,0,10.7-60.17q-4.6-15-9.94-29.45l5.35-21.47q-7.65-6-13-11c-1.52-2.65-2.81-4.82-3.83-6.49q-23.7-53.92-64.2-81.13T2594.76,165.9Z"/><path class="cls-1" d="M3447.17,590.61l30,45.72q-10.7,5.5-47,9.52t-94.33,7q-67.2,43-134,71.55t-132.51,42q-15.29,3-35.14,6.48a123.27,123.27,0,0,1-26.72-3.24,309.86,309.86,0,0,1-32.09-9.24q-18.35-7.5-28.26-14.47c-6.62-4.67-9.92-9.48-9.92-14.48q0-15,22.15-29t65-26.47q85.57-26,168.86-52.45,12.21,0,17.58,3.25c3.55,2.17,5.35,4.91,5.35,8.24q0,13.49-29.43,22.73T3157.25,671c3.55,3.34,6.62,5,9.18,5q9.9,0,43.92-19.48T3243.59,632l-3.81-11.49,1.52-2q19.86-11.47,29.41-20.47t9.55-14.49q0-12.48-19.14-33.46t-57.4-50.45a659.89,659.89,0,0,0-58.16-41.2q-29.08-18.24-55.88-32.22a162.82,162.82,0,0,1-18.36-11.74,89,89,0,0,1-12.25-10.74q-8.43-10-13.4-16.48t-8.79-8.5c-2.56-2-6-4.41-10.35-7.25s-9.57-6.07-15.68-9.73q-16.08-11-24.88-30.47t-8.79-48.45a88.12,88.12,0,0,1,8-36.71,96.87,96.87,0,0,1,23.3-31.71,62.36,62.36,0,0,0,4.59-7c1.52-2.67,3.32-5.66,5.35-9Q3036,175,3078.06,147.81t110.07-57.7q9.13-3,22.15-8t29-13a145.18,145.18,0,0,1,20.25-9,227.55,227.55,0,0,1,26.39-7.5q20.63-5.47,46.62-12,38.21-13,63.41-19t38.22-6q25.23,0,37.83,10t12.62,28.94q0,21-5,34.22t-13.36,17.72q-90.2,47-145.23,70.68T3243.91,201q-10.72,0-16.83-4T3221,185q0-13.47,34.39-29.72T3289,130.56l-6.87-3a31,31,0,0,0-8.79,1.51,75.22,75.22,0,0,0-10.31,4q-67.26,35.48-101.28,63.68t-34,49.2q0,16.5,8.79,33.47t25.66,34.95q12.24,12.5,35.58,31.72t59.31,46.2q49.74,37.47,76.54,57.94t29.84,21.47a209.65,209.65,0,0,1,26,26q10.72,13,14.55,25a89.49,89.49,0,0,1,5.35,23.48,321.44,321.44,0,0,1,1.54,34q0,11.52,5.39,13.25t17.75,1.75a17.53,17.53,0,0,0,7.32-1.25A45.14,45.14,0,0,0,3447.17,590.61Z"/><path class="cls-2" d="M1826.26,448.23a66.21,66.21,0,0,1,5.16,5.63l-.24-1.09,28.7,2.46c-3.42-1.2-3.52-5.56,1.37-6.18l20.75,9c-6.36-4.34.07-9.76,9.33-12.66,26.59-5.47,21.62,39,42.15,21.14-3,.39-3.51-1.78-6.55-1.4l10.57-7.86c2.53,36.92,62.66,3.27,65.22,40.23,15-15,1-8.91-18.61-26.23l16-10.73c-6.55-1.37-12,1.5-19.05-2,21-15.74,41.1,3.74,52.63,13.3,8-5.39-6.57-27.71,16.51-21.78,32.58,7-6,27,13.61,31.23l14-19.25c25.06,14.44,43.6,1.21,64.63-1.37,4.77,1.49,7.12,3.45,8.3,5.52,22.33-8.45,47.08,18.34,63.92,11.94-4-3.9,9.55-12.12,11.55-16.77l30.56,11.61c-13.52-4.92-13-16-15.56-26.6,9.53,1.06,14.06,7.06,20.55,8.43-4-3.85-8-7.78-3-12.75l32.12,17.95c-1.87,1.89-5.54,2.62-8.61,3.14,8,.06,25.33,6.85,36.7-2.21-1.05-4.22-5-8.15-6-12.42-9.51,12.17-15,1.9-20.08-6.28,22.07,1.71,5.48-2.85,16-10.73,15.56.29,22.06,14.82,18,24.11,17.55-4.32,23.11-7.24,41.13,3.71l-3.52-14.91,16.53,4.58-13.51-18.11c31.55-10.42,6,25.57,41.08,16.87V434.55c13.55,4.93,18.37,27,28.74,11.23,13.18,7.83-22.3,18.71,8.55,21.16,5.39-6.82,17.05-11.87,25.88-14.59,9,5.39-4.54,13.94-11.79,14.06,44.19,4.22,27.21-45.08,68.32-28.34-14.18,9.53,12.08,25.3-21.62,25.16,16.16,7.65,31.52-19.25,48.41-5.09l-11.06-16.67c6-.38,12.88,5.67,16.17,7.68l-1.47-12.91c20.9,22.52,38.48-11.07,51,18.54-8.75-23.29,15.47,1.25,23.63-7.92-17.18-16.31-48.9.81-51.33-20.74,7.9-6.59,15.07,3.93,22.69-2.49-5.38-3.15-13.23-8.81-15.31-13.14,26.13-12.43,41.24,12.67,57.2,18.18l-28.11-4.77c2.43,21.53,12.66,3.59,20.67,20.42,14-11.69,25.08,5,36.48-2.21-3,.14-3.26-2-6.3-1.81,30.61.3,38.86-34.89,51-35.6,11.93-2.9,34.66,8.68,26.53,17.87,9.84,5.91-40.7-6.13-23,21.67,17.23-32.42,36,11.81,73.95-10.56-16.76-11.33,9.66-18.25-5.3-26.8,18.17,2.48,18.88,7.29,27,16.36l5.39-10.13c23.88,22.43,5.72,20,41.71,31.78-12.1-7.79,14.29-14.72,5.06-21.77a38,38,0,0,1,27,8.22l-1.33-1.44c36.38,4.93,29.66-13,62.84-2l-3.24,6.11c43.47,16.07,98.17,5.06,143.09,12.26l-14.4,4.65c7.06-1,29.95,9.16,42.85.25-2.81-.56-7.65-3.25-10.26-2.42.35-6.84,5.71-17,16.47-18.76l4.23,10.36,4.3-8.1c16.43-.3-4.71,14.95,11.73,14.67,9.35-29.89,70.73-4.52,84.71-30.87,11.34,21.47-31.08,3.35-18.67,22.81,5-3.27,7.2-7.33,17.87-9.13l-3.58,12.92c49.67-7.72,68.57-18.88,112.86-16.5l-1.8-2.75c15.72-5.13,24.24-2.87,31.37,8.25,3.23-6.07-8.15-9.07-2.06-14.43,28,32.86,55.3-24.67,72.41-1.7-2.41-26.06,33.67-51.18,18.4-71.39l11.39,3c-3.88-17.18-35.7-.15-42.38-18.11l-35.76,18.3c1.08-6.5-4.89-16.06.86-18.32-8.87-.28-16.62-1.14-5.08-10.5-85.42,44.5-173.85,2.73-258.11,26.71-5.72-1.49-2.49-7.58-.32-11.63-15.43,16.74-14.94-8.55-23.48-10.84L3091.2,346.9c-9.3-7-2.14-14.43-2.85-19.21-43.14-4.44-84.94,19.19-119.92,5.33-11,8.67,2.79,19.27-11.84,22.33,18.92-23.86-37.87-12.32-31.39-26.81-14.84,23.35-51.4,5-44.87,40.46-17.54,2.3-14.65-15.4-9.61-18.71-20.35,1.54-36.78,1.86-53.52-9.47-11.09,8.61-93.1-8.36-111,19.24,12.24-17.91-1-9.23-13-16.89l10.6-15.81L2677,329.27c-5.48-1.46-7-.78-7,.63-4.54.81,1.15,9.06-10.37,13.13-18.25,1.13-19.2-7.49-29.3-15.55l2.77-2.35-12.39-1.39c-9.12.55,32.35,15.38,2.68,23.68-.47-4.33-18.11-24.93-26-13.58,15.18-.94,13.35,10,7.8,14.7l-21.28,1.31,6.88-20c-61,1.56-124.41,16.23-189.57,15.47,1,17.43-46.12,1.26-40.05,26.83l2.48-2.48c16,2.4-4.49,20.26-17.53,17.48,13.56-8.27-24.62-25.48,8.46-29.55l-25.68-11.91c-14.59-49-68.24,4.65-107.14-10.89a9.39,9.39,0,0,1,3.84,6c-34.59-15.47-77.19,13.86-85.24,6.08l-3,13.51c-29.62-20.49-33.13-22.23-68.21-13.58.48,2.18,4.57,6-1,8.9-8.53-9.92-17.11-19.82-41.14-16.88l1,4.23-37.65-1.93c.59,41.59-64.67-24.95-75.63,20.24-7.46-12.09-35-15.71-47.29-21.4a8.11,8.11,0,0,1-2.84,5.59c-14.62-22.3-41.66,7.32-57.68,4.91-10.48-5.26-6-12.39-1.52-19.54a19.38,19.38,0,0,1-8.4,4.32l-1.56-6c-2.49-2.46,4-3.89,7.52-5.67-21.23-11.87-14.47,1.57-16.63,11.81a55,55,0,0,1-10.72-3.15c.44-6.31.34-11.92-8.8-13-2.2-2.21-6.92-.56-13,2.42-6.09-3-10.81-4.63-13-2.42-9.14,1.11-9.24,6.72-8.8,13a55,55,0,0,1-10.72,3.15c-2.15-10.24,4.6-23.68-16.63-11.81,3.52,1.78,10,3.21,7.52,5.67l-1.56,6a19.27,19.27,0,0,1-8.4-4.32c4.5,7.15,9,14.28-1.52,19.54-16,2.42-43.06-27.21-57.68-4.91a8.12,8.12,0,0,1-2.84-5.59c-12.28,5.69-39.83,9.3-47.29,21.4-11-45.19-76.22,21.35-75.63-20.24l-37.65,1.93,1-4.23c-24-2.94-32.61,7-41.14,16.88-5.54-2.87-1.45-6.72-1-8.9-35.08-8.66-38.59-6.92-68.21,13.58l-3-13.51c-8.05,7.78-50.65-21.55-85.24-6.08a9.35,9.35,0,0,1,3.84-6c-38.9,15.53-92.55-38.14-107.14,10.89l-25.68,11.91c33.08,4.07-5.09,21.29,8.46,29.55-13,2.78-33.55-15.08-17.53-17.48l2.48,2.48c6.08-25.57-41.07-9.39-40-26.83-65.16.76-128.55-13.91-189.57-15.47l6.88,20-21.28-1.31c-5.55-4.68-7.38-15.64,7.8-14.7-7.9-11.35-25.54,9.25-26,13.58-29.67-8.3,11.79-23.13,2.68-23.68l-12.39,1.39,2.77,2.35c-10.1,8.06-11.06,16.68-29.3,15.55-11.52-4.07-5.83-12.33-10.37-13.13,0-1.41-1.49-2.09-7-.63L804,327.36l10.6,15.81c-12,7.66-25.21-1-13,16.89-18-27.6-100-10.63-111.05-19.24-16.74,11.33-33.17,11-53.52,9.47,5,3.31,7.93,21-9.61,18.71,6.52-35.47-30-17.11-44.87-40.46,6.48,14.49-50.31,2.95-31.39,26.81-14.63-3.06-.79-13.66-11.84-22.33-35,13.86-76.78-9.77-119.92-5.33-.71,4.78,6.45,12.16-2.85,19.21L394,322.79c-8.53,2.29-8.05,27.58-23.48,10.84,2.17,4.05,5.4,10.14-.32,11.63-84.26-24-172.69,17.79-258.11-26.71,11.54,9.37,3.8,10.23-5.08,10.5,5.75,2.26-.22,11.83.86,18.32L72.1,329.07c-6.68,18-38.5.93-42.38,18.11l11.39-3c-15.28,20.21,20.81,45.33,18.4,71.39,17.11-23,44.38,34.56,72.41,1.7,6.09,5.36-5.29,8.36-2.06,14.43,7.13-11.12,15.65-13.39,31.37-8.25l-1.8,2.75c44.29-2.39,63.18,8.78,112.86,16.5l-3.58-12.92c10.67,1.81,12.89,5.87,17.87,9.13,12.41-19.46-30-1.33-18.67-22.81,14,26.35,75.36,1,84.71,30.87,16.44.28-4.7-15,11.73-14.67l4.3,8.1L372.88,430c10.76,1.8,16.12,11.93,16.47,18.76-2.61-.83-7.45,1.86-10.26,2.42,12.9,8.91,35.79-1.23,42.85-.25l-14.4-4.65c44.92-7.2,99.62,3.81,143.09-12.26l-3.24-6.11c33.19-11,26.46,6.89,62.84,2l-1.33,1.44a38,38,0,0,1,27-8.22c-9.23,7.05,17.16,14,5.06,21.77,36-11.81,17.83-9.35,41.71-31.78l5.39,10.13c8.15-9.07,8.86-13.88,27-16.36-15,8.55,11.47,15.47-5.3,26.8,37.92,22.37,56.72-21.86,74,10.56,17.7-27.81-32.84-15.77-23-21.67-8.13-9.19,14.6-20.77,26.53-17.87,12.16.72,20.41,35.9,51,35.6-3-.16-3.27,2-6.3,1.81,11.4,7.21,22.52-9.48,36.48,2.21,8-16.83,18.23,1.11,20.67-20.42L861,428.67c16-5.51,31.08-30.61,57.2-18.18-2.08,4.33-9.92,10-15.31,13.14,7.62,6.41,14.8-4.1,22.69,2.49-2.43,21.56-34.15,4.43-51.33,20.74,8.16,9.17,32.38-15.37,23.63,7.92,12.55-29.6,30.13,4,51-18.54l-1.47,12.91c3.29-2,10.14-8.06,16.17-7.68l-11.06,16.67c16.89-14.16,32.25,12.74,48.41,5.09-33.7.14-7.44-15.62-21.62-25.16,41.12-16.74,24.14,32.57,68.32,28.34-7.25-.12-20.82-8.67-11.79-14.06,8.84,2.73,20.5,7.77,25.88,14.59,30.85-2.45-4.63-13.33,8.55-21.16,10.38,15.82,15.19-6.29,28.74-11.23v13.14c35.07,8.69,9.53-27.3,41.08-16.87l-13.51,18.11,16.53-4.58-3.52,14.91c18-10.95,23.59-8,41.13-3.71-4-9.28,2.48-23.82,18-24.11,10.55,7.88-6,12.44,16,10.73-5,8.18-10.58,18.45-20.08,6.28-1,4.27-5,8.21-6,12.42,11.36,9.06,28.71,2.26,36.7,2.21-3.07-.52-6.74-1.25-8.61-3.14L1249,442c5,5,1,8.9-3,12.75,6.49-1.37,11-7.37,20.55-8.43-2.55,10.66-2,21.68-15.56,26.6l30.56-11.61c2,4.65,15.54,12.87,11.55,16.77,16.84,6.4,41.59-20.39,63.92-11.94,1.18-2.06,3.53-4,8.3-5.52,21,2.58,39.57,15.82,64.63,1.37l14,19.25c19.57-4.19-19-24.26,13.61-31.23,23.08-5.92,8.47,16.39,16.51,21.78,11.53-9.56,31.59-29,52.63-13.3-7,3.55-12.5.68-19.05,2l16,10.73c-19.59,17.32-33.63,11.19-18.61,26.23,2.56-37,62.7-3.31,65.22-40.23l10.57,7.86c-3-.38-3.55,1.79-6.55,1.4,20.53,17.86,15.56-26.61,42.15-21.14,9.26,2.9,15.69,8.32,9.33,12.66l20.75-9c4.89.62,4.8,5,1.37,6.18l28.7-2.46-.24,1.09a66.06,66.06,0,0,1,5.16-5.63l-9,34.68c3.44-11.33,6.45-24.75,21.27-26.7,3.11,6.53,5.53,9.64,7.77,10.73m104.62,0c2.24-1.09,4.67-4.21,7.77-10.73m-100.32,5.7a26,26,0,0,1,2.74-1.39c6.2.47,11.58,1.22,15.15-.29a45.76,45.76,0,0,1,10.11,4.87l-16.53,4.56m21.06-13.73a421.34,421.34,0,0,0,15.36,0"/></svg>